<?xml version="1.0" encoding="UTF-8" standalone="no"?>
<!-- Created with Inkscape (http://www.inkscape.org/) -->

<svg
   width="210mm"
   height="297mm"
   viewBox="0 0 210 297"
   version="1.1"
   id="svg5"
   inkscape:version="1.1 (c68e22c387, 2021-05-23)"
   sodipodi:docname="GreifarmplatteV4c.svg"
   xmlns:inkscape="http://www.inkscape.org/namespaces/inkscape"
   xmlns:sodipodi="http://sodipodi.sourceforge.net/DTD/sodipodi-0.dtd"
   xmlns="http://www.w3.org/2000/svg"
   xmlns:svg="http://www.w3.org/2000/svg">
  <sodipodi:namedview
     id="namedview7"
     pagecolor="#ffffff"
     bordercolor="#666666"
     borderopacity="1.0"
     inkscape:pageshadow="2"
     inkscape:pageopacity="0.0"
     inkscape:pagecheckerboard="0"
     inkscape:document-units="mm"
     showgrid="false"
     inkscape:zoom="2.1775788"
     inkscape:cx="99.651962"
     inkscape:cy="1056.4486"
     inkscape:window-width="1920"
     inkscape:window-height="1017"
     inkscape:window-x="-8"
     inkscape:window-y="-8"
     inkscape:window-maximized="1"
     inkscape:current-layer="layer1"
     inkscape:snap-global="false"
     showguides="false"
     inkscape:guide-bbox="true"
     showborder="true"
     inkscape:showpageshadow="2"
     inkscape:deskcolor="#d1d1d1">
    <sodipodi:guide
       position="494.27423,91.059561"
       orientation="1,0"
       id="guide4302"
       inkscape:locked="false" />
    <sodipodi:guide
       position="604.84802,115.0301"
       orientation="0,-1"
       id="guide6858"
       inkscape:locked="false" />
    <sodipodi:guide
       position="590.41414,74.477789"
       orientation="0,-1"
       id="guide6865"
       inkscape:locked="false" />
    <sodipodi:guide
       position="600.83454,105.63207"
       orientation="1,0"
       id="guide8568"
       inkscape:locked="false" />
    <sodipodi:guide
       position="568.57537,104.8423"
       orientation="1,0"
       id="guide9011"
       inkscape:locked="false" />
    <sodipodi:guide
       position="572.46348,91.416168"
       orientation="1,0"
       id="guide9127"
       inkscape:locked="false" />
    <sodipodi:guide
       position="132.826,120.18505"
       orientation="1,0"
       id="guide992"
       inkscape:locked="false" />
    <sodipodi:guide
       position="101.3035,122.94631"
       orientation="0,-1"
       id="guide4147"
       inkscape:locked="false" />
    <sodipodi:guide
       position="45.019938,20.007097"
       orientation="1,0"
       id="guide11891"
       inkscape:locked="false" />
    <sodipodi:guide
       position="48.814009,13.137569"
       orientation="1,0"
       id="guide11893"
       inkscape:locked="false" />
    <sodipodi:guide
       position="61.98833,37.06141"
       orientation="1,0"
       id="guide16893"
       inkscape:locked="false" />
    <sodipodi:guide
       position="68.646812,38.822684"
       orientation="1,0"
       id="guide16895"
       inkscape:locked="false" />
    <sodipodi:guide
       position="38.576243,39.510014"
       orientation="1,0"
       id="guide970"
       inkscape:locked="false" />
    <sodipodi:guide
       position="19.245164,35.81563"
       orientation="0,-1"
       id="guide1129"
       inkscape:locked="false" />
    <sodipodi:guide
       position="21.65081,14.72327"
       orientation="0,-1"
       id="guide1131"
       inkscape:locked="false" />
    <sodipodi:guide
       position="17.741636,12.360582"
       orientation="1,0"
       id="guide952"
       inkscape:locked="false" />
    <sodipodi:guide
       position="16.839519,14.078901"
       orientation="1,0"
       id="guide954"
       inkscape:locked="false" />
    <sodipodi:guide
       position="0.77324319,15.496514"
       orientation="0,-1"
       id="guide956"
       inkscape:locked="false" />
  </sodipodi:namedview>
  <defs
     id="defs2">
    <pattern
       id="EMFhbasepattern"
       patternUnits="userSpaceOnUse"
       width="6"
       height="6"
       x="0"
       y="0" />
    <pattern
       id="EMFhbasepattern-5"
       patternUnits="userSpaceOnUse"
       width="6"
       height="6"
       x="0"
       y="0" />
    <pattern
       id="EMFhbasepattern-53"
       patternUnits="userSpaceOnUse"
       width="6"
       height="6"
       x="0"
       y="0" />
    <pattern
       id="EMFhbasepattern-7"
       patternUnits="userSpaceOnUse"
       width="6"
       height="6"
       x="0"
       y="0" />
    <pattern
       id="EMFhbasepattern-1"
       patternUnits="userSpaceOnUse"
       width="6"
       height="6"
       x="0"
       y="0" />
    <pattern
       id="EMFhbasepattern-17"
       patternUnits="userSpaceOnUse"
       width="6"
       height="6"
       x="0"
       y="0" />
    <pattern
       id="EMFhbasepattern-4"
       patternUnits="userSpaceOnUse"
       width="6"
       height="6"
       x="0"
       y="0" />
    <pattern
       id="EMFhbasepattern-8"
       patternUnits="userSpaceOnUse"
       width="6"
       height="6"
       x="0"
       y="0" />
    <pattern
       id="EMFhbasepattern-42"
       patternUnits="userSpaceOnUse"
       width="6"
       height="6"
       x="0"
       y="0" />
    <pattern
       id="EMFhbasepattern-58"
       patternUnits="userSpaceOnUse"
       width="6"
       height="6"
       x="0"
       y="0" />
    <pattern
       id="EMFhbasepattern-6"
       patternUnits="userSpaceOnUse"
       width="6"
       height="6"
       x="0"
       y="0" />
    <pattern
       id="EMFhbasepattern-89"
       patternUnits="userSpaceOnUse"
       width="6"
       height="6"
       x="0"
       y="0" />
    <pattern
       id="EMFhbasepattern-80"
       patternUnits="userSpaceOnUse"
       width="6"
       height="6"
       x="0"
       y="0" />
    <pattern
       id="EMFhbasepattern-3"
       patternUnits="userSpaceOnUse"
       width="6"
       height="6"
       x="0"
       y="0" />
    <pattern
       id="EMFhbasepattern-35"
       patternUnits="userSpaceOnUse"
       width="6"
       height="6"
       x="0"
       y="0" />
    <pattern
       id="EMFhbasepattern-44"
       patternUnits="userSpaceOnUse"
       width="6"
       height="6"
       x="0"
       y="0" />
    <pattern
       id="EMFhbasepattern-86"
       patternUnits="userSpaceOnUse"
       width="6"
       height="6"
       x="0"
       y="0" />
    <pattern
       id="EMFhbasepattern-9"
       patternUnits="userSpaceOnUse"
       width="6"
       height="6"
       x="0"
       y="0" />
    <pattern
       id="EMFhbasepattern-5-0"
       patternUnits="userSpaceOnUse"
       width="6"
       height="6"
       x="0"
       y="0" />
    <pattern
       id="EMFhbasepattern-53-4"
       patternUnits="userSpaceOnUse"
       width="6"
       height="6"
       x="0"
       y="0" />
    <pattern
       id="EMFhbasepattern-7-9"
       patternUnits="userSpaceOnUse"
       width="6"
       height="6"
       x="0"
       y="0" />
    <pattern
       id="EMFhbasepattern-1-2"
       patternUnits="userSpaceOnUse"
       width="6"
       height="6"
       x="0"
       y="0" />
    <pattern
       id="EMFhbasepattern-17-0"
       patternUnits="userSpaceOnUse"
       width="6"
       height="6"
       x="0"
       y="0" />
    <pattern
       id="EMFhbasepattern-4-6"
       patternUnits="userSpaceOnUse"
       width="6"
       height="6"
       x="0"
       y="0" />
    <pattern
       id="EMFhbasepattern-8-1"
       patternUnits="userSpaceOnUse"
       width="6"
       height="6"
       x="0"
       y="0" />
    <pattern
       id="EMFhbasepattern-42-0"
       patternUnits="userSpaceOnUse"
       width="6"
       height="6"
       x="0"
       y="0" />
    <pattern
       id="EMFhbasepattern-58-0"
       patternUnits="userSpaceOnUse"
       width="6"
       height="6"
       x="0"
       y="0" />
    <pattern
       id="EMFhbasepattern-6-8"
       patternUnits="userSpaceOnUse"
       width="6"
       height="6"
       x="0"
       y="0" />
    <pattern
       id="EMFhbasepattern-89-6"
       patternUnits="userSpaceOnUse"
       width="6"
       height="6"
       x="0"
       y="0" />
    <pattern
       id="EMFhbasepattern-80-7"
       patternUnits="userSpaceOnUse"
       width="6"
       height="6"
       x="0"
       y="0" />
    <pattern
       id="EMFhbasepattern-3-7"
       patternUnits="userSpaceOnUse"
       width="6"
       height="6"
       x="0"
       y="0" />
    <pattern
       id="EMFhbasepattern-35-5"
       patternUnits="userSpaceOnUse"
       width="6"
       height="6"
       x="0"
       y="0" />
    <pattern
       id="EMFhbasepattern-44-6"
       patternUnits="userSpaceOnUse"
       width="6"
       height="6"
       x="0"
       y="0" />
    <pattern
       id="EMFhbasepattern-86-7"
       patternUnits="userSpaceOnUse"
       width="6"
       height="6"
       x="0"
       y="0" />
  </defs>
  <g
     inkscape:label="Ebene 1"
     inkscape:groupmode="layer"
     id="layer1"
     style="display:inline">
    <path
       id="circle1404-5"
       style="display:inline;fill:none;fill-opacity:1;stroke:#000000;stroke-width:0.188976mm;stroke-opacity:1"
       d="M 20.845703 962.67773 C 16.823316 962.66262 10.899891 963.96446 7.375 968.72266 C 5.2644804 971.33903 4.6213016 975.25653 4.7207031 979.29492 L 5.0585938 1100.6523 C 4.1235031 1111.2822 10.869986 1116.5298 21.441406 1116.2305 L 145.6582 1115.9961 C 145.6582 1107.0116 148.48264 1095.3556 158.2793 1092.8496 L 196.54297 1092.8496 L 196.37891 1106.3301 L 233.88477 1106.502 L 234.08008 1092.3418 L 245.72266 1092.3164 L 245.48047 987.32812 L 234.00586 987.32031 L 234.20898 972.86133 L 195.89258 972.78125 L 196.01562 986.82422 L 158.19727 987.07031 C 153.14152 983.4397 148.82961 974.86517 145.97656 962.73633 L 20.845703 962.67773 z M 39.748047 978.10742 L 126.41992 978.10742 L 126.41992 1025.0957 L 39.748047 1025.0957 L 39.748047 978.10742 z M 135.19141 997.8125 C 137.26526 997.81269 138.94622 999.49446 138.94531 1001.5684 C 138.94512 1003.6414 137.2645 1005.322 135.19141 1005.3223 C 133.11822 1005.322 131.43765 1003.6414 131.4375 1001.5684 C 131.43663 999.49446 133.1175 997.81269 135.19141 997.8125 z M 30.457031 997.85547 C 32.530171 997.85566 34.210749 999.53627 34.210938 1001.6094 C 34.210749 1003.6826 32.530171 1005.363 30.457031 1005.3633 C 28.38389 1005.3631 26.703314 1003.6826 26.703125 1001.6094 C 26.703314 999.53627 28.38389 997.85566 30.457031 997.85547 z M 210.37305 1016.2754 L 222.1543 1016.2754 C 224.45542 1016.2754 226.30859 1018.1285 226.30859 1020.4297 L 226.30859 1024.1211 C 226.30859 1026.4222 224.45542 1028.2754 222.1543 1028.2754 L 210.37305 1028.2754 C 208.07193 1028.2754 206.21875 1026.4222 206.21875 1024.1211 L 206.21875 1020.4297 C 206.21875 1018.1285 208.07193 1016.2754 210.37305 1016.2754 z M 210.37305 1050.4883 L 222.1543 1050.4883 C 224.45542 1050.4883 226.30859 1052.3395 226.30859 1054.6406 L 226.30859 1058.334 C 226.30859 1060.635 224.45542 1062.4863 222.1543 1062.4863 L 210.37305 1062.4863 C 208.07193 1062.4863 206.21875 1060.635 206.21875 1058.334 L 206.21875 1054.6406 C 206.21875 1052.3395 208.07193 1050.4883 210.37305 1050.4883 z M 63.707031 1065.9258 C 67.228366 1065.9258 70.064453 1068.7619 70.064453 1072.2832 L 70.064453 1079.3047 C 70.064453 1082.826 67.228366 1085.6602 63.707031 1085.6602 C 60.185696 1085.6602 57.351562 1082.826 57.351562 1079.3047 L 57.351562 1072.2832 C 57.351562 1068.7619 60.185696 1065.9258 63.707031 1065.9258 z "
       transform="scale(0.26458333)" />
  </g>
</svg>
