<?xml version="1.0" encoding="UTF-8" standalone="no"?>
<svg
   width="450.194mm"
   height="382.618mm"
   viewBox="12.150681 -90.308548 450.193665 382.617554"
   version="1.1"
   id="svg1518"
   sodipodi:docname="Servor-Aufnahme.svg"
   inkscape:version="1.1 (c68e22c387, 2021-05-23)"
   xmlns:inkscape="http://www.inkscape.org/namespaces/inkscape"
   xmlns:sodipodi="http://sodipodi.sourceforge.net/DTD/sodipodi-0.dtd"
   xmlns="http://www.w3.org/2000/svg"
   xmlns:svg="http://www.w3.org/2000/svg">
  <defs
     id="defs1522" />
  <sodipodi:namedview
     id="namedview1520"
     pagecolor="#ffffff"
     bordercolor="#666666"
     borderopacity="1.0"
     inkscape:pageshadow="2"
     inkscape:pageopacity="0.0"
     inkscape:pagecheckerboard="0"
     inkscape:document-units="mm"
     showgrid="false"
     inkscape:zoom="1.0967314"
     inkscape:cx="262.59849"
     inkscape:cy="1049.9381"
     inkscape:window-width="1920"
     inkscape:window-height="1017"
     inkscape:window-x="-8"
     inkscape:window-y="-8"
     inkscape:window-maximized="1"
     inkscape:current-layer="svg1518"
     inkscape:snap-global="false"
     showguides="true"
     inkscape:guide-bbox="true" />
  <path
     id="circle1440"
     style="fill:#000000;fill-opacity:1;stroke:#000000;stroke-width:0.0499999mm"
     d="m 65.029357,190.11102 c -1.324888,0 -2.522849,0.2232 -3.68091,0.68937 -4.047741,0.68572 -7.808435,1.57192 -12.6969,1.66915 -2.736214,0.29316 -4.371376,1.38896 -4.852417,3.16775 v 8.35713 c 0.200782,2.5272 1.903401,3.35847 3.77393,3.77444 5.440047,0.006 9.28693,1.07371 13.760401,1.72392 1.143818,0.453 2.390897,0.70229 3.695896,0.70229 5.545992,0 10.041766,-4.49628 10.041766,-10.04226 0,-5.54599 -4.495784,-10.04179 -10.041766,-10.04179 z m -16.724042,3.82614 h 22.931934 v 12.4323 H 48.305315 Z m -2.321305,5.21258 a 0.99331496,0.99331496 0 0 1 0.993221,0.99375 0.99331496,0.99331496 0 0 1 -0.993221,0.99322 0.99331496,0.99331496 0 0 1 -0.993221,-0.99322 0.99331496,0.99331496 0 0 1 0.993221,-0.99375 z m 27.71097,0.0114 a 0.99331496,0.99331496 0 0 1 0.993738,0.99322 0.99331496,0.99331496 0 0 1 -0.993738,0.99322 0.99331496,0.99331496 0 0 1 -0.993222,-0.99322 0.99331496,0.99331496 0 0 1 0.993222,-0.99322 z" />
</svg>
