<?xml version="1.0" encoding="UTF-8" standalone="no"?>
<!-- Created with Inkscape (http://www.inkscape.org/) -->

<svg
   width="210mm"
   height="297mm"
   viewBox="0 0 210 297"
   version="1.1"
   id="svg1785"
   inkscape:version="1.1 (c68e22c387, 2021-05-23)"
   sodipodi:docname="Staender.svg"
   xmlns:inkscape="http://www.inkscape.org/namespaces/inkscape"
   xmlns:sodipodi="http://sodipodi.sourceforge.net/DTD/sodipodi-0.dtd"
   xmlns="http://www.w3.org/2000/svg"
   xmlns:svg="http://www.w3.org/2000/svg">
  <sodipodi:namedview
     id="namedview1787"
     pagecolor="#ffffff"
     bordercolor="#666666"
     borderopacity="1.0"
     inkscape:pageshadow="2"
     inkscape:pageopacity="0.0"
     inkscape:pagecheckerboard="0"
     inkscape:document-units="mm"
     showgrid="false"
     inkscape:zoom="0.69397447"
     inkscape:cx="220.46921"
     inkscape:cy="561.25984"
     inkscape:window-width="1920"
     inkscape:window-height="1017"
     inkscape:window-x="-8"
     inkscape:window-y="-8"
     inkscape:window-maximized="1"
     inkscape:current-layer="layer1" />
  <defs
     id="defs1782" />
  <g
     inkscape:label="Ebene 1"
     inkscape:groupmode="layer"
     id="layer1">
    <path
       id="path1476"
       style="fill:#000000;fill-opacity:1;stroke:#000000;stroke-width:0.0499999mm"
       d="m 4.9212336,281.46187 c 0,7.06499 5.7275014,12.7925 12.7925004,12.7925 7.064992,0 12.691732,-5.57661 12.691732,-12.64161 v -42.04032 l -4.974889,-0.0434 v 3.11557 l -6.144329,0.0434 v 4.47208 l 1.164789,0.005 v 2.33112 l -1.164789,0.003 -0.01085,2.29702 -3.042709,-0.0103 0.0041,-2.26808 -1.231966,-0.016 0.0052,-2.39778 1.182876,-0.005 v -4.4111 l -6.2022065,-5.2e-4 -5.159e-4,-3.129 -4.8958261,0.0424 z m 6.3613694,-0.005 c 0,-2.2592 1.174414,-4.244 2.987415,-5.41466 0.0246,-0.17605 0.05891,-0.24275 0.05891,-0.38654 0,-1.91511 1.552379,-3.46749 3.467489,-3.46749 1.91512,0 3.467488,1.55238 3.467488,3.46749 0,0.18106 -0.0136,0.35862 0.0093,0.55294 1.69513,1.17481 2.770373,3.08598 2.770373,5.24826 h 5.16e-4 c 0,3.52395 -2.857045,6.38049 -6.381004,6.38049 -3.523951,0 -6.38049,-2.85654 -6.38049,-6.38049 z m 5.449281,-18.78542 a 1.000882,1.000882 0 0 1 1.000972,-1.00097 1.000882,1.000882 0 0 1 1.000971,1.00097 1.000882,1.000882 0 0 1 -1.000971,1.00097 1.000882,1.000882 0 0 1 -1.000972,-1.00097 z m 0.127122,27.37352 a 1.000882,1.000882 0 0 1 1.000974,-1.00045 1.000882,1.000882 0 0 1 1.000972,1.00045 1.000882,1.000882 0 0 1 -1.000972,1.00098 1.000882,1.000882 0 0 1 -1.000974,-1.00098 z m 18.311024,-7.84293 c 0,7.06499 5.726985,12.7925 12.791995,12.7925 7.064984,0 12.692248,-5.57661 12.692248,-12.6416 v -42.04033 l -4.974908,-0.0434 v 3.11557 l -6.144313,0.0434 v 4.47208 l 1.179777,-0.01 -0.015,2.33113 -1.165305,0.0181 -0.01032,2.29702 -3.042708,-0.01 -0.01138,-2.26808 -1.23145,-0.001 -0.01085,-2.39779 1.213882,-0.0202 v -4.4111 l -6.202204,-5.2e-4 -10e-4,-3.12952 -4.895823,0.0429 z m 11.321785,0 a 1.4704159,1.4704159 0 0 1 1.47021,-1.47019 1.4704159,1.4704159 0 0 1 1.470713,1.47019 1.4704159,1.4704159 0 0 1 -1.470713,1.47071 1.4704159,1.4704159 0 0 1 -1.47021,-1.47071 z" />
    <path
       id="circle1440"
       style="fill:#000000;fill-opacity:1;stroke:#000000;stroke-width:0.0499999mm"
       d="m 62.397231,271.19914 c 0,1.32489 0.22267,2.52232 0.68884,3.68039 0.68575,4.04774 1.57245,7.80895 1.66968,12.69742 0.29316,2.73621 1.38896,4.37138 3.16778,4.85242 h 8.3571 c 2.52722,-0.20078 3.35846,-1.90392 3.77444,-3.77445 0.006,-5.44005 1.07371,-9.28641 1.72392,-13.75988 0.45299,-1.14382 0.70178,-2.3909 0.70178,-3.6959 0,-5.54599 -4.49577,-10.04177 -10.04176,-10.04177 -5.54598,0 -10.04178,4.4958 -10.04178,10.04177 z m 3.82614,16.72404 v -22.93193 h 12.43179 v 22.93193 z m 5.21258,2.32131 a 0.99331496,0.99331496 0 0 1 0.99325,-0.99322 0.99331496,0.99331496 0 0 1 0.99322,0.99322 0.99331496,0.99331496 0 0 1 -0.99322,0.99322 0.99331496,0.99331496 0 0 1 -0.99325,-0.99322 z m 0.0109,-27.71149 a 0.99331496,0.99331496 0 0 1 0.99322,-0.99322 0.99331496,0.99331496 0 0 1 0.99322,0.99322 0.99331496,0.99331496 0 0 1 -0.99322,0.99322 0.99331496,0.99331496 0 0 1 -0.99322,-0.99322 z" />
  </g>
</svg>
