<?xml version="1.0" encoding="UTF-8" standalone="no"?>
<!-- Created with Inkscape (http://www.inkscape.org/) -->

<svg
   width="210mm"
   height="297mm"
   viewBox="0 0 210 297"
   version="1.1"
   id="svg5"
   inkscape:version="1.1 (c68e22c387, 2021-05-23)"
   sodipodi:docname="ZangeV4.svg"
   xmlns:inkscape="http://www.inkscape.org/namespaces/inkscape"
   xmlns:sodipodi="http://sodipodi.sourceforge.net/DTD/sodipodi-0.dtd"
   xmlns="http://www.w3.org/2000/svg"
   xmlns:svg="http://www.w3.org/2000/svg">
  <sodipodi:namedview
     id="namedview7"
     pagecolor="#ffffff"
     bordercolor="#666666"
     borderopacity="1.0"
     inkscape:pageshadow="2"
     inkscape:pageopacity="0.0"
     inkscape:pagecheckerboard="0"
     inkscape:document-units="mm"
     showgrid="false"
     inkscape:snap-global="false"
     inkscape:zoom="0.1767767"
     inkscape:cx="-345.0681"
     inkscape:cy="1224.7089"
     inkscape:window-width="1920"
     inkscape:window-height="1017"
     inkscape:window-x="-8"
     inkscape:window-y="-8"
     inkscape:window-maximized="1"
     inkscape:current-layer="layer2"
     showguides="false"
     inkscape:guide-bbox="true">
    <sodipodi:guide
       position="142.14739,264.58855"
       orientation="0,-1"
       id="guide8086" />
    <inkscape:grid
       type="xygrid"
       id="grid8088" />
    <sodipodi:guide
       position="29.831769,256.91563"
       orientation="0,-1"
       id="guide864" />
  </sodipodi:namedview>
  <defs
     id="defs2">
    <inkscape:path-effect
       effect="copy_rotate"
       starting_point="0,0"
       origin="100.83,133.81902"
       id="path-effect2185"
       is_visible="true"
       lpeversion="1"
       method="normal"
       num_copies="3"
       starting_angle="0"
       rotation_angle="30"
       gap="1"
       copies_to_360="true"
       mirror_copies="false"
       split_items="false" />
    <pattern
       id="EMFhbasepattern"
       patternUnits="userSpaceOnUse"
       width="6"
       height="6"
       x="0"
       y="0" />
    <pattern
       id="EMFhbasepattern-5"
       patternUnits="userSpaceOnUse"
       width="6"
       height="6"
       x="0"
       y="0" />
    <pattern
       id="EMFhbasepattern-53"
       patternUnits="userSpaceOnUse"
       width="6"
       height="6"
       x="0"
       y="0" />
    <pattern
       id="EMFhbasepattern-7"
       patternUnits="userSpaceOnUse"
       width="6"
       height="6"
       x="0"
       y="0" />
    <pattern
       id="EMFhbasepattern-1"
       patternUnits="userSpaceOnUse"
       width="6"
       height="6"
       x="0"
       y="0" />
    <pattern
       id="EMFhbasepattern-17"
       patternUnits="userSpaceOnUse"
       width="6"
       height="6"
       x="0"
       y="0" />
    <pattern
       id="EMFhbasepattern-4"
       patternUnits="userSpaceOnUse"
       width="6"
       height="6"
       x="0"
       y="0" />
    <pattern
       id="EMFhbasepattern-8"
       patternUnits="userSpaceOnUse"
       width="6"
       height="6"
       x="0"
       y="0" />
    <pattern
       id="EMFhbasepattern-42"
       patternUnits="userSpaceOnUse"
       width="6"
       height="6"
       x="0"
       y="0" />
    <pattern
       id="EMFhbasepattern-58"
       patternUnits="userSpaceOnUse"
       width="6"
       height="6"
       x="0"
       y="0" />
    <pattern
       id="EMFhbasepattern-6"
       patternUnits="userSpaceOnUse"
       width="6"
       height="6"
       x="0"
       y="0" />
    <pattern
       id="EMFhbasepattern-89"
       patternUnits="userSpaceOnUse"
       width="6"
       height="6"
       x="0"
       y="0" />
    <pattern
       id="EMFhbasepattern-80"
       patternUnits="userSpaceOnUse"
       width="6"
       height="6"
       x="0"
       y="0" />
    <pattern
       id="EMFhbasepattern-3"
       patternUnits="userSpaceOnUse"
       width="6"
       height="6"
       x="0"
       y="0" />
    <pattern
       id="EMFhbasepattern-35"
       patternUnits="userSpaceOnUse"
       width="6"
       height="6"
       x="0"
       y="0" />
    <pattern
       id="EMFhbasepattern-44"
       patternUnits="userSpaceOnUse"
       width="6"
       height="6"
       x="0"
       y="0" />
    <pattern
       id="EMFhbasepattern-86"
       patternUnits="userSpaceOnUse"
       width="6"
       height="6"
       x="0"
       y="0" />
  </defs>
  <g
     inkscape:groupmode="layer"
     id="layer2"
     inkscape:label="Ebene 2">
    <path
       id="path1280-9-1-8-3-5-3"
       style="fill:#000000;stroke:#000000;stroke-width:0.377953;stroke-linecap:square;stroke-linejoin:round;stroke-miterlimit:4;stroke-dasharray:none;fill-opacity:1"
       d="M 141.9707 899.34961 L 110.37305 914.5918 L 106.77539 910.00391 C 105.06633 908.65541 98.906839 916.84756 97.423828 916.08398 L 94.548828 914.42188 L 96.523438 911.59961 C 97.484345 910.1372 97.153132 906.27552 95.988281 903.64062 L 94.345703 903.03711 C 93.021546 903.79884 90.017741 905.43523 88.814453 908.77539 L 88.494141 912.22266 L 85.414062 911.78711 L 86.304688 908.46094 C 86.70751 906.75803 85.075895 903.24358 83.080078 901.16602 L 81.330078 901.16211 C 80.346343 902.33081 78.084365 904.89509 78.095703 908.44531 L 78.970703 911.79492 L 76.175781 912.0918 L 76.021484 908.63281 C 74.980338 905.23865 72.057431 903.45931 70.771484 902.63477 L 69.101562 903.1582 C 67.811232 905.73399 67.296073 909.57701 68.185547 911.08398 L 70.021484 913.99609 L 67.482422 915.28516 L 67.332031 915.39648 L 66.123047 912.15234 C 64.090266 909.24165 60.762196 908.4447 59.285156 908.05469 L 57.857422 909.06445 C 57.420055 911.91195 58.106825 915.72749 59.416016 916.88867 L 62.058594 919.0957 L 59.650391 921.35352 L 57.470703 918.66406 C 54.616291 916.55293 51.209868 916.858 49.685547 916.95898 L 48.652344 918.37305 C 49.14527 921.21147 51.01288 924.60756 52.625 925.29102 L 55.833984 926.54102 L 54.503906 929.13477 L 51.611328 927.23047 C 48.251971 926.0821 45.098055 927.40515 43.675781 927.96289 L 43.119141 929.62305 C 44.447871 932.17922 47.257789 934.84972 49 935.01367 L 52.4375 935.23633 L 51.898438 938.03906 L 48.566406 937.09375 C 45.017165 937.00833 42.407563 939.21642 41.21875 940.17578 L 41.183594 941.92578 C 43.219323 943.96423 46.701231 945.66819 48.412109 945.30078 L 51.757812 944.47852 L 52.185547 947.54688 L 48.726562 947.70898 C 45.333794 948.75474 43.559131 951.67773 42.736328 952.96484 L 43.261719 954.63477 C 45.839205 955.92154 49.681736 956.43253 51.1875 955.54102 L 54.097656 953.69922 L 55.484375 956.63867 L 52.246094 957.86523 C 49.344891 959.91155 48.562629 963.24189 48.179688 964.7207 L 49.197266 966.14453 C 52.046765 966.56859 55.858648 965.86357 57.013672 964.54883 L 59.208984 961.89648 C 59.881022 962.5347 60.537519 963.18116 61.171875 963.91016 L 58.457031 966.06055 C 56.312716 968.89017 56.57896 972.30079 56.662109 973.82617 L 58.064453 974.87305 C 60.908359 974.41315 64.327287 972.58536 65.029297 970.98242 L 66.316406 967.78906 L 69.136719 969.25781 L 67.285156 972.18359 C 66.198089 975.56332 67.576937 978.69359 68.160156 980.10547 L 69.830078 980.63281 C 72.361643 979.25782 74.983329 976.40122 75.115234 974.65625 L 75.275391 971.2168 L 78.417969 971.90039 L 77.509766 975.22266 C 77.098137 976.92352 78.712107 980.44742 80.697266 982.53516 L 82.447266 982.54883 C 83.437048 981.38522 85.711191 978.83343 85.71875 975.2832 L 84.861328 971.93164 L 87.816406 971.38867 L 87.886719 974.83203 C 87.97327 976.57984 90.516966 979.50272 93.011719 980.94336 L 94.695312 980.46094 C 95.315193 979.06478 96.775782 975.97143 95.777344 972.56445 L 94.001953 969.58984 L 96.744141 968.22461 L 97.949219 971.45117 C 98.6092 973.07191 101.97761 974.98744 104.80859 975.52148 L 106.23828 974.50977 C 106.36149 972.98711 106.716 969.58586 104.64648 966.70117 L 101.98828 964.48047 L 104.00391 962.34375 L 106.13086 965.05469 C 107.25115 966.39907 111.04272 967.20297 113.90234 966.85352 L 114.95703 965.45703 C 114.61272 963.96873 113.91901 960.6195 111.07227 958.49805 L 107.86523 957.1875 L 109.21094 954.48633 L 112.07227 956.40234 C 113.55418 957.33286 117.40924 956.92214 120.01953 955.70312 L 120.58789 954.04883 C 119.79895 952.74066 118.10064 949.77077 114.73633 948.63672 L 111.2832 948.38672 L 111.87695 945.39844 C 112.15475 943.77558 122.05765 944.4909 122.08789 942.42773 L 122.08789 942.42383 L 122.10547 937.11719 L 147.34766 925.94727 L 174.86133 925.63867 L 206.14453 961.38281 L 206.38281 979.88672 L 214.13867 971.14062 L 221.69727 980.25391 L 229.25586 971.14062 L 236.81445 980.25391 L 244.375 971.14062 L 252.22461 980.88867 L 252.23242 961.70898 C 228.18087 942.67048 206.64732 920.3705 184.27539 899.36328 L 141.9707 899.34961 z M 81.771484 936.32031 A 5.5694078 5.5694078 0 0 1 87.341797 941.88867 A 5.5694078 5.5694078 0 0 1 81.771484 947.45898 A 5.5694078 5.5694078 0 0 1 76.203125 941.88867 A 5.5694078 5.5694078 0 0 1 81.771484 936.32031 z M 214.03516 977.89648 L 206.63867 986.24219 L 206.81445 1007.9863 L 206.29883 1008.9629 L 178.17578 1038.3438 L 150.66602 1038.8535 L 123.01758 1028.2148 L 122.74414 1019.0938 C 122.42477 1017.0553 114.67394 1018.0228 114.05859 1016.2227 L 112.23438 1011.7695 L 115.56641 1010.8086 C 117.24437 1010.2704 119.42797 1007.0339 120.18164 1004.2324 L 119.27539 1002.7207 C 117.75598 1002.4801 114.36795 1001.8624 111.3125 1003.7188 L 108.87695 1006.2168 L 106.81641 1003.7168 L 109.66992 1001.7422 C 111.08917 1000.6973 112.12566 996.93467 111.94727 994.03906 L 110.60742 992.89648 C 109.09062 993.15266 105.68144 993.64563 103.37695 996.37891 L 101.86523 999.52734 L 99.265625 997.79492 L 101.43359 995.08984 C 102.49489 993.68284 102.41314 989.78032 101.41406 987.05664 L 99.802734 986.34375 C 98.422489 987.02297 95.297828 988.47186 93.871094 991.75 L 93.324219 995.19336 L 90.257812 994.55469 L 91.369141 991.26953 C 91.884819 989.5845 90.473739 985.94623 88.603516 983.72852 L 86.845703 983.60938 C 85.780972 984.71969 83.340684 987.15035 83.121094 990.71875 L 83.783203 994.14062 L 80.949219 994.25586 L 81.019531 990.77148 C 80.194385 987.29285 77.373317 985.31472 76.134766 984.40234 L 74.421875 984.81836 C 72.957573 987.32275 72.188671 991.15037 72.984375 992.72266 L 74.640625 995.76953 L 72.005859 996.89844 L 71.847656 997 L 70.841797 993.66211 C 68.988619 990.60474 65.699056 989.58774 64.240234 989.09961 L 62.738281 990.02148 C 62.113336 992.85447 62.555237 996.73222 63.794922 997.98438 L 66.306641 1000.375 L 63.740234 1002.4863 L 61.724609 999.64258 C 58.993787 997.3351 55.550062 997.41946 54.011719 997.42188 L 52.882812 998.77539 C 53.19349 1001.6598 54.847551 1005.1946 56.421875 1005.9863 L 59.566406 1007.4512 L 58.060547 1009.9707 L 55.277344 1007.8711 C 51.976342 1006.4985 48.719418 1007.6202 47.253906 1008.0879 L 46.587891 1009.7207 C 47.756672 1012.3759 50.406428 1015.2433 52.146484 1015.5215 L 55.585938 1015.9688 L 54.861328 1018.75 L 51.576172 1017.582 C 48.015101 1017.2651 45.247419 1019.3145 43.990234 1020.2012 L 43.845703 1021.959 C 45.758598 1024.14 49.145516 1026.0781 50.888672 1025.8203 L 54.304688 1025.2129 L 54.533203 1028.3242 L 51.046875 1028.2598 C 47.569445 1029.0897 45.5963 1031.9125 44.685547 1033.1523 L 45.105469 1034.8652 C 47.611825 1036.3264 51.438578 1037.0888 53.009766 1036.291 L 56.054688 1034.6289 L 57.257812 1037.6758 L 53.921875 1038.6953 C 50.873232 1040.5627 49.871797 1043.8592 49.390625 1045.3203 L 50.320312 1046.8164 C 53.156168 1047.4281 57.032922 1046.9685 58.279297 1045.7227 L 60.658203 1043.1992 C 61.291954 1043.8843 61.908063 1044.5777 62.498047 1045.3516 L 59.630859 1047.3359 C 57.290954 1050.0398 57.335431 1053.4832 57.320312 1055.0215 L 58.662109 1056.166 C 61.549895 1055.8891 65.102119 1054.276 65.912109 1052.7109 L 67.414062 1049.5859 L 70.152344 1051.2441 L 68.101562 1054.0645 C 66.789197 1057.3899 67.972435 1060.6253 68.466797 1062.082 L 70.109375 1062.7188 C 72.742912 1061.5019 75.562169 1058.8035 75.808594 1057.0586 L 76.195312 1053.6133 L 79.308594 1054.5039 L 78.179688 1057.7832 C 77.65524 1059.4656 79.047403 1063.1126 80.90625 1065.3398 L 82.664062 1065.4668 C 83.734463 1064.3619 86.188427 1061.9442 86.425781 1058.377 L 85.78125 1054.9531 L 88.787109 1054.6016 L 88.630859 1058.0664 C 88.604403 1059.8284 90.971575 1062.9308 93.384766 1064.541 L 95.107422 1064.166 C 95.821526 1062.8034 97.490477 1059.7914 96.708984 1056.3027 L 95.119141 1053.1973 L 99.033203 1051.5957 L 101.47656 1050.5625 C 102.79293 1049.6061 109.22037 1056.1151 110.44531 1054.8867 L 114.04297 1051.3047 L 146.08008 1065.6016 L 188.36523 1064.3281 L 252.05859 1008.5039 C 252.39195 1001.909 252.1669 993.81386 252.19336 987.20898 L 244.35938 977.89648 L 236.80078 986.78125 L 229.15234 977.89648 L 221.76953 986.87109 L 214.03516 977.89648 z M 84.501953 1014.5547 A 5.5694078 -5.5694078 0 0 1 90.070312 1020.123 A 5.5694078 -5.5694078 0 0 1 84.501953 1025.6934 A 5.5694078 -5.5694078 0 0 1 78.931641 1020.123 A 5.5694078 -5.5694078 0 0 1 84.501953 1014.5547 z M 100.86523 1023.293 C 101.43303 1023.2967 102.01256 1023.4284 102.57031 1023.7051 L 135.07227 1037.5742 C 137.07005 1038.5887 137.82978 1040.9258 136.85742 1042.8359 C 135.88506 1044.7461 133.61572 1045.5966 131.59375 1044.5781 L 99.09375 1030.709 C 97.13467 1029.7292 96.373344 1027.3925 97.345703 1025.4824 C 98.044586 1024.1095 99.414205 1023.2834 100.86523 1023.293 z "
       transform="scale(0.26458333)" />
  </g>
</svg>
