<?xml version="1.0" encoding="UTF-8" standalone="no"?>
<!-- Created with Inkscape (http://www.inkscape.org/) -->

<svg
   width="210mm"
   height="297mm"
   viewBox="0 0 210 297"
   version="1.1"
   id="svg1025"
   inkscape:version="1.1 (c68e22c387, 2021-05-23)"
   sodipodi:docname="Zange-AufsatzV3.svg"
   xmlns:inkscape="http://www.inkscape.org/namespaces/inkscape"
   xmlns:sodipodi="http://sodipodi.sourceforge.net/DTD/sodipodi-0.dtd"
   xmlns="http://www.w3.org/2000/svg"
   xmlns:svg="http://www.w3.org/2000/svg">
  <sodipodi:namedview
     id="namedview1027"
     pagecolor="#ffffff"
     bordercolor="#666666"
     borderopacity="1.0"
     inkscape:pageshadow="2"
     inkscape:pageopacity="0.0"
     inkscape:pagecheckerboard="0"
     inkscape:document-units="mm"
     showgrid="false"
     showguides="true"
     inkscape:guide-bbox="true"
     inkscape:snap-global="false"
     inkscape:zoom="1.9452182"
     inkscape:cx="216.42816"
     inkscape:cy="1056.1797"
     inkscape:window-width="1920"
     inkscape:window-height="1017"
     inkscape:window-x="-8"
     inkscape:window-y="-8"
     inkscape:window-maximized="1"
     inkscape:current-layer="layer1">
    <sodipodi:guide
       position="104.64248,115.41451"
       orientation="1,0"
       id="guide1144" />
  </sodipodi:namedview>
  <defs
     id="defs1022" />
  <g
     inkscape:label="Ebene 1"
     inkscape:groupmode="layer"
     id="layer1">
    <path
       id="path2138"
       style="fill:none;fill-opacity:0.458763;stroke:#000000;stroke-width:0.0919946;stroke-linejoin:bevel"
       d="m 35.743475,253.03581 c 0,-1.94766 1.5849,-3.52054 3.5575,-3.51643 l 9.607,0.0321 c 5.91924,5.55815 11.6166,11.45809 17.98024,16.49535 l -0.002,5.07467 -2.07712,-2.57929 -2,2.41145 -2,-2.41145 -2,2.41145 -2,-2.41145 -2.05202,2.3143 -0.0628,-4.89606 -8.27701,-9.4573 -7.05118,-0.005 c -2.00765,0.01 -3.62261,-1.51499 -3.62261,-3.46265 z"
       sodipodi:nodetypes="scccccccccccccs" />
    <path
       id="path2138-1"
       style="fill:none;fill-opacity:0.458763;stroke:#000000;stroke-width:0.0919946;stroke-linejoin:bevel"
       d="m 35.864595,289.16387 c 0,-1.94766 1.5849,-3.52054 3.56511,-3.52142 l 7.86452,-0.13569 7.4407,-7.77362 0.13632,-0.25867 -0.0464,-5.75286 1.95685,-2.20824 2.04677,2.37418 1.95324,-2.37418 2.02338,2.35079 2,-2.35079 2.07276,2.46368 c -0.007,1.74754 0.0525,3.8894 -0.0357,5.6343 l -16.85202,14.77013 -10.64102,0.32296 c -1.90562,-0.014 -3.48451,-1.59291 -3.48451,-3.54057 z"
       sodipodi:nodetypes="scccccsscccccccs" />
  </g>
</svg>
